<svg width="40" height="40" viewBox="0 0 40 40" fill="none" xmlns="http://www.w3.org/2000/svg">
<g clip-path="url(#clip0_101_39)">
<mask id="mask0_101_39" style="mask-type:luminance" maskUnits="userSpaceOnUse" x="0" y="0" width="40" height="40">
<path d="M40 0H0V40H40V0Z" fill="white"/>
</mask>
<g mask="url(#mask0_101_39)">
<path d="M40 33.61H25V40H40V33.61Z" fill="#3355FF"/>
<path d="M40 16.805H25V23.195H40V16.805Z" fill="#3355FF"/>
<path d="M40 0H25V6.39H40V0Z" fill="#3355FF"/>
<path d="M15.125 6.23911L4.51841 -4.36749L-2.67814e-06 0.15092L10.6066 10.7575L15.125 6.23911Z" fill="#3355FF"/>
<path d="M25.1421 -2L11 12.1421L15.5184 16.6605L29.6605 2.51841L25.1421 -2Z" fill="#3355FF"/>
<path d="M18.6605 9.77464L4.51841 -4.36749L-2.67814e-06 0.15092L14.1421 14.2931L18.6605 9.77464Z" fill="#3355FF"/>
<path d="M31.3867 0H25V40H31.3867V0Z" fill="#3355FF"/>
<path d="M6.38669 0H0V40H6.38669V0Z" fill="#3355FF"/>
<path d="M18 9H12V40H18V9Z" fill="#3355FF"/>
</g>
</g>
<defs>
<clipPath id="clip0_101_39">
<rect width="40" height="40" fill="white"/>
</clipPath>
</defs>
</svg>
