<svg width="30" height="40" viewBox="0 0 30 40" fill="none" xmlns="http://www.w3.org/2000/svg">
<g clip-path="url(#clip0_149_36)">
<path d="M6.79271 15.5026C7.27534 15.7592 7.82978 15.8102 8.35246 15.6504C9.10665 15.4198 9.65085 14.7962 9.77688 14.0065C9.88252 13.3373 9.61538 12.6636 9.14089 12.18C8.33863 11.372 7.76914 10.7377 7.34785 10.2011C7.34785 10.2011 7.3381 10.1959 7.33584 10.1884C6.93375 9.67447 7.23419 8.92126 7.8745 8.79899C8.26157 8.72963 8.65774 8.69017 8.96464 8.66574C11.4809 8.49659 15.5192 8.99296 20.9666 10.1322C21.839 10.3146 22.7713 9.97244 23.2276 9.20826C23.8541 8.15941 23.4344 6.86695 22.4351 6.33559C22.2644 6.24485 22.0809 6.17851 21.8941 6.14174C15.9651 4.89652 11.6481 4.3833 8.70387 4.58125C5.75962 4.77919 3.87578 5.73482 2.93224 7.50936C1.76578 9.70315 3.53907 11.9779 4.12301 12.7262C4.65914 13.4114 5.35122 14.1797 6.30047 15.1346C6.44749 15.2815 6.61233 15.4067 6.79271 15.5026Z" fill="#FF834F"/>
<path d="M24.751 20.325C24.7267 19.8398 24.5165 19.3795 24.1558 19.0312C23.7951 18.6829 23.3278 18.4889 22.842 18.4815L4.84377 18.2073C4.35799 18.2 3.90934 18.3802 3.58297 18.7182C3.2566 19.0562 3.09212 19.5108 3.11305 19.9995C3.13735 20.4847 3.34759 20.945 3.70825 21.2933C4.06892 21.6416 4.53631 21.8356 5.02205 21.843L23.0236 22.1138C24.0299 22.129 24.8046 21.3267 24.7543 20.3216L24.751 20.325Z" fill="#FF834F"/>
<path d="M5.46731 27.6499C5.86848 26.9124 6.49326 26.1717 7.36965 25.3836C7.94412 24.865 8.64462 24.3139 9.50942 23.7007C9.69335 23.5676 9.89966 23.4691 10.116 23.403C10.6458 23.241 11.2254 23.3002 11.7126 23.5592C12.4184 23.9345 12.849 24.666 12.8251 25.4773C12.8081 26.1564 12.4242 26.7763 11.8761 27.1685C11.1786 27.6714 10.6204 28.108 10.1741 28.5046C10.0534 28.6125 9.94347 28.717 9.84813 28.8112C9.38971 29.2646 9.54214 30.0339 10.1369 30.2777C10.6768 30.4968 11.4773 30.7368 12.6665 30.9526C15.221 31.4189 18.4697 31.5843 21.6219 31.7438L21.8024 31.7537C22.3613 31.7837 22.9078 31.8118 23.4365 31.8393C23.8812 31.863 24.3194 32.0009 24.6701 32.2779C25.2313 32.7212 25.5206 33.3776 25.4782 34.0703C25.4243 34.9382 24.8278 35.6939 24.0006 35.9468C23.7628 36.0195 23.5171 36.0473 23.2706 36.034C22.6688 35.9993 22.0508 35.9695 21.4025 35.9372C18.1288 35.7675 14.7425 35.5969 11.9192 35.0827C9.44119 34.6343 6.03964 33.7176 5.09814 30.9668C4.73305 29.908 4.86186 28.7632 5.46898 27.6554L5.46731 27.6499Z" fill="#FF834F"/>
</g>
<defs>
<clipPath id="clip0_149_36">
<rect width="30" height="40" fill="white"/>
</clipPath>
</defs>
</svg>
