<svg width="17" height="19" viewBox="0 0 17 19" fill="none" xmlns="http://www.w3.org/2000/svg">
<path d="M2.8188 14.9552C2.5411 14.7694 2.3022 14.5333 2.0226 14.1995C1.9216 14.0787 1.5125 13.5658 1.5915 13.6639C1.1631 13.1316 0.892401 12.8851 0.613401 12.785C0.132201 12.6125 -0.117998 12.0824 0.0546016 11.6013C0.227202 11.12 0.757201 10.8698 1.2384 11.0424C1.9351 11.2923 2.4064 11.7225 3.0412 12.5123C2.9542 12.4041 3.3554 12.9073 3.4421 13.0109C3.6184 13.2215 3.7475 13.349 3.8484 13.4165C4.0381 13.5435 4.3929 13.5982 4.9137 13.5461C4.9355 13.1923 5.0009 12.8493 5.1008 12.5322C2.3532 11.8607 0.798203 10.0879 0.798203 6.61151C0.798203 5.46481 1.14 4.43081 1.7776 3.56431C1.5761 2.73691 1.6065 1.73611 2.0569 0.610106C2.1602 0.351806 2.3741 0.153706 2.6395 0.0705058C2.7155 0.0485058 2.7576 0.0387071 2.8325 0.0272071C3.5757 -0.0868929 4.6255 0.184907 5.9943 1.04241C6.7964 0.853007 7.6365 0.756907 8.4813 0.756907C9.3253 0.756907 10.1646 0.852806 10.966 1.04181C12.3328 0.178406 13.385 -0.0932932 14.1335 0.0270068C14.2119 0.0396068 14.2791 0.0560063 14.335 0.0744063C14.5951 0.159806 14.8041 0.355906 14.9057 0.610106C15.356 1.73591 15.3865 2.73641 15.1852 3.56371C15.8247 4.43031 16.1644 5.45661 16.1644 6.61151C16.1644 10.0894 14.6147 11.8556 11.8671 12.5287C11.9827 12.9129 12.0437 13.3419 12.0437 13.8062C12.0437 14.4212 12.0414 15.0086 12.037 15.6672C12.0359 15.8433 12.0345 16.0314 12.0325 16.3204C12.38 16.397 12.6669 16.6717 12.7412 17.0431C12.8414 17.5444 12.5163 18.0321 12.015 18.1324C10.9605 18.3432 10.1791 17.6401 10.1791 16.7212C10.1791 16.6376 10.1798 16.5181 10.1811 16.3078C10.1833 16.018 10.1846 15.8306 10.1858 15.6551C10.19 15.0002 10.1923 14.4167 10.1923 13.8062C10.1923 13.1608 10.0228 12.7399 9.7981 12.5463C9.1862 12.0188 9.4963 11.0155 10.2992 10.9253C13.0451 10.6168 14.3131 9.55331 14.3131 6.61151C14.3131 5.72791 14.0244 4.99721 13.4678 4.38611C13.229 4.12391 13.1611 3.74831 13.2928 3.41901C13.4462 3.03561 13.5116 2.53311 13.3808 1.92511L13.3721 1.92761C12.9168 2.05641 12.3444 2.33501 11.6517 2.80591C11.4257 2.95941 11.1436 3.00541 10.8807 2.93141C10.1213 2.71791 9.3053 2.60831 8.4813 2.60831C7.6573 2.60831 6.8412 2.71791 6.0819 2.93141C5.8204 3.00501 5.5398 2.95991 5.3144 2.80821C4.6178 2.33931 4.0422 2.06101 3.5841 1.93141C3.4514 2.53601 3.5169 3.03671 3.6698 3.41901C3.8015 3.74831 3.7335 4.12391 3.4948 4.38611C2.9421 4.99301 2.6496 5.73591 2.6496 6.61151C2.6496 9.54771 3.9187 10.6184 6.6502 10.9253C7.4511 11.0153 7.7625 12.0149 7.1542 12.5437C6.9761 12.6987 6.757 13.2213 6.757 13.8062V16.7212C6.757 17.6342 5.9842 18.3187 4.943 18.1364C4.4394 18.0483 4.1026 17.5686 4.1908 17.0651C4.2575 16.6835 4.5492 16.3977 4.9056 16.3199V15.4039C4.0632 15.4607 3.3673 15.3222 2.8188 14.9552Z" fill="#1D1D1D"/>
</svg>
