<svg width="17" height="19" viewBox="0 0 17 19" fill="none" xmlns="http://www.w3.org/2000/svg">
<mask id="mask0_162_40" style="mask-type:luminance" maskUnits="userSpaceOnUse" x="0" y="0" width="17" height="19">
<path d="M16.16 0H0V18.17H16.16V0Z" fill="white"/>
</mask>
<g mask="url(#mask0_162_40)">
<path d="M4.93698 18.139H12.007C11.727 17.489 11.267 16.699 11.107 15.889C10.897 14.829 10.927 13.699 10.797 12.619C10.667 11.539 11.687 11.629 12.437 11.279C13.127 10.959 13.607 10.609 14.117 10.019C14.627 9.429 14.757 8.589 14.937 7.819C15.147 6.899 15.287 6.059 14.997 5.139C14.757 4.369 14.417 3.699 14.267 2.879C14.157 2.249 14.267 0.758998 13.267 0.978998C12.557 1.139 11.927 1.619 11.197 1.759C10.407 1.909 9.57698 1.839 8.77698 1.879C7.85698 1.919 6.94698 1.969 6.02698 1.879C5.67698 1.849 5.40698 1.789 5.09698 1.629C4.91698 1.539 4.87699 1.479 4.66699 1.419C4.49699 1.369 4.32698 1.369 4.15698 1.319C3.43698 1.149 2.73698 1.089 2.46698 1.919C2.27698 2.509 2.33698 3.379 2.29698 3.999C2.18698 5.609 1.32698 7.429 2.07698 8.999C2.54698 9.989 3.47699 10.569 4.44699 10.999C4.79699 11.159 6.13698 11.509 6.20698 11.939C6.24698 12.159 5.85699 12.689 5.81699 12.949C5.70699 13.559 5.73698 14.189 5.65698 14.809C5.53698 15.659 5.27699 16.489 5.11699 17.309C5.05699 17.589 4.97698 17.859 4.93698 18.119C4.93698 18.169 4.93699 18.129 4.94699 18.119L4.93698 18.139Z" fill="#FF834F"/>
<path d="M2.82306 14.9609C2.54306 14.7709 2.30306 14.5409 2.02306 14.2009C1.92306 14.0809 1.51306 13.5709 1.59306 13.6609C1.16306 13.1309 0.893069 12.8809 0.613069 12.7809C0.133069 12.6109 -0.116944 12.0809 0.0530557 11.6009C0.223056 11.1209 0.753064 10.8709 1.23306 11.0409C1.93306 11.2909 2.40307 11.7209 3.03307 12.5109C2.94307 12.4009 3.34306 12.9109 3.43306 13.0109C3.61306 13.2209 3.74306 13.3509 3.84306 13.4209C4.03306 13.5509 4.38306 13.6009 4.91306 13.5509C4.93306 13.2009 5.00306 12.8509 5.10306 12.5409C2.35306 11.8709 0.803056 10.1009 0.803056 6.62091C0.803056 5.47091 1.14307 4.44091 1.78307 3.57091C1.58307 2.74091 1.61307 1.74091 2.06307 0.620908C2.16307 0.360908 2.38307 0.160909 2.64307 0.0809094C2.72307 0.0609094 2.76305 0.0509085 2.83305 0.0409085C3.57305 -0.0690915 4.62306 0.200909 5.99306 1.06091C6.79306 0.870909 7.63306 0.770908 8.48306 0.770908C9.33306 0.770908 10.1631 0.870909 10.9631 1.05091C12.3331 0.180909 13.3931 -0.0890917 14.1331 0.0309083C14.2131 0.0409083 14.2831 0.0609094 14.3331 0.0809094C14.5931 0.170909 14.8031 0.360908 14.9031 0.620908C15.3531 1.75091 15.3831 2.75091 15.1831 3.57091C15.8231 4.44091 16.1631 5.46091 16.1631 6.62091C16.1631 10.1009 14.6131 11.8609 11.8631 12.5409C11.9831 12.9209 12.0431 13.3509 12.0431 13.8209C12.0431 14.4309 12.0431 15.0209 12.0431 15.6809C12.0431 15.8609 12.0431 16.0409 12.0431 16.3309C12.3931 16.4109 12.6731 16.6809 12.7531 17.0509C12.8531 17.5509 12.5331 18.0409 12.0231 18.1409C10.9731 18.3509 10.1831 17.6509 10.1831 16.7309C10.1831 16.6509 10.1831 16.5309 10.1831 16.3209C10.1831 16.0309 10.1831 15.8409 10.1831 15.6709C10.1831 15.0209 10.1831 14.4309 10.1831 13.8209C10.1831 13.1709 10.0131 12.7509 9.79306 12.5609C9.18306 12.0309 9.49306 11.0309 10.2931 10.9409C13.0431 10.6309 14.3031 9.57091 14.3031 6.63091C14.3031 5.75091 14.0131 5.02091 13.4531 4.40091C13.2131 4.14091 13.1431 3.76091 13.2831 3.43091C13.4331 3.05091 13.5031 2.54091 13.3731 1.94091C12.9131 2.07091 12.3431 2.35091 11.6531 2.82091C11.4231 2.97091 11.1431 3.02091 10.8831 2.95091C10.1231 2.74091 9.30306 2.63091 8.48306 2.63091C7.66306 2.63091 6.84305 2.74091 6.08305 2.95091C5.82305 3.02091 5.54307 2.98091 5.31307 2.83091C4.61307 2.36091 4.04305 2.08091 3.58305 1.95091C3.45305 2.55091 3.51307 3.06091 3.67307 3.44091C3.80307 3.77091 3.73306 4.14091 3.49306 4.41091C2.94306 5.02091 2.64307 5.76091 2.64307 6.64091C2.64307 9.58091 3.91307 10.6509 6.64307 10.9509C7.44307 11.0409 7.75307 12.0409 7.14307 12.5709C6.96307 12.7309 6.74306 13.2509 6.74306 13.8309V16.7509C6.74306 17.6609 5.97306 18.3509 4.93306 18.1709C4.43306 18.0809 4.09306 17.6009 4.18306 17.1009C4.25306 16.7209 4.54307 16.4309 4.89307 16.3509V15.4309C4.05307 15.4909 3.35306 15.3509 2.80306 14.9809L2.82306 14.9609Z" fill="#1D1D1D"/>
</g>
</svg>
