<svg width="16" height="16" viewBox="0 0 16 16" fill="none" xmlns="http://www.w3.org/2000/svg">
<mask id="mask0_162_46" style="mask-type:luminance" maskUnits="userSpaceOnUse" x="0" y="0" width="16" height="16">
<path d="M16 0H0V16H16V0Z" fill="white"/>
</mask>
<g mask="url(#mask0_162_46)">
<path d="M14.7969 1.2695H0.866943V15.1995H14.7969V1.2695Z" fill="#FF834F"/>
<path d="M0.889999 0H15.11C15.6 0 16 0.399999 16 0.889999V15.11C16 15.6 15.6 16 15.11 16H0.889999C0.399999 16 0 15.6 0 15.11V0.889999C0 0.399999 0.399999 0 0.889999 0ZM1.78 1.78V14.22H14.22V1.78H1.78ZM4 5.33C3.26 5.33 2.67 4.73 2.67 4C2.67 3.27 3.27 2.67 4 2.67C4.73 2.67 5.33 3.27 5.33 4C5.33 4.73 4.73 5.33 4 5.33ZM3.11 6.22H4.89V12.89H3.11V6.22ZM8 6.6C8.52 6.1 9.12 5.77 9.78 5.77C11.62 5.77 12.89 7.26 12.89 9.1V12.88H11.11V9.1C11.11 8.24 10.41 7.54 9.55 7.54C8.69 7.54 7.99001 8.24 7.99001 9.1V12.88H6.21001V6.21H7.99001V6.59L8 6.6Z" fill="#1D1D1D"/>
</g>
</svg>
