<svg width="16" height="16" viewBox="0 0 16 16" fill="none" xmlns="http://www.w3.org/2000/svg">
<path d="M0.888901 0H15.1111C15.6021 0 16 0.398001 16 0.888901V15.1111C16 15.602 15.6021 16 15.1111 16H0.888901C0.398001 16 0 15.602 0 15.1111V0.888901C0 0.398001 0.398001 0 0.888901 0ZM1.7778 1.7778V14.2222H14.2222V1.7778H1.7778ZM4 5.3333C3.2636 5.3333 2.6667 4.7364 2.6667 4C2.6667 3.2636 3.2636 2.6667 4 2.6667C4.7364 2.6667 5.3333 3.2636 5.3333 4C5.3333 4.7364 4.7364 5.3333 4 5.3333ZM3.1111 6.2222H4.8889V12.8889H3.1111V6.2222ZM8 6.604C8.5195 6.1025 9.1249 5.7778 9.7778 5.7778C11.6187 5.7778 12.8889 7.2701 12.8889 9.1111V12.8889H11.1111V9.1111C11.1111 8.252 10.4147 7.5556 9.5556 7.5556C8.6965 7.5556 8 8.252 8 9.1111V12.8889H6.2222V6.2222H8V6.604Z" fill="#1D1D1D"/>
</svg>
